<svg xmlns="http://www.w3.org/2000/svg" width="1200" height="630" viewBox="0 0 1200 630">
  <defs>
    <linearGradient id="bg" x1="0" y1="0" x2="1" y2="1"><stop offset="0%" stop-color="#09090b"></stop><stop offset="100%" stop-color="#0f1117"></stop></linearGradient>
    <radialGradient id="glow" cx="50%" cy="45%" r="50%"><stop offset="0%" stop-color="rgba(148,163,184,0.08)"></stop><stop offset="100%" stop-color="rgba(148,163,184,0)"></stop></radialGradient>
    <pattern id="grid" width="64" height="64" patternUnits="userSpaceOnUse"><path d="M 64 0 L 0 0 0 64" fill="none" stroke="rgba(255,255,255,0.02)" stroke-width="1"></path></pattern>
  </defs>
  <rect width="1200" height="630" fill="url(#bg)"></rect>
  <rect width="1200" height="630" fill="url(#glow)"></rect>
  <rect width="1200" height="630" fill="url(#grid)" opacity="0.5"></rect>
  <g transform="translate(540, 168) scale(1.28)">
    <rect x="8" y="20" width="13" height="54" rx="4" fill="#94a3b8" opacity="1" transform="rotate(-30 14 68)"></rect>
  <rect x="28" y="22" width="13" height="56" rx="4" fill="#e2e8f0" opacity="0.45" transform="rotate(-15 34 76)"></rect>
  <rect x="50" y="22" width="13" height="60" rx="4" fill="#e2e8f0" opacity="0.65" transform="rotate(-5 56 80)"></rect>
  <rect x="72" y="18" width="15" height="68" rx="4" fill="#e2e8f0" opacity="1"></rect>
  </g>
  <text x="600" y="416" text-anchor="middle" font-family="&#39;JetBrains Mono&#39;, ui-monospace, SFMono-Regular, monospace" font-weight="600" font-size="46" letter-spacing="-1"><tspan fill="#e9edee">agent</tspan><tspan fill="#828d93">-actions</tspan></text>
  <text x="600" y="462" text-anchor="middle" font-family="Hanken Grotesk, -apple-system, Helvetica, Arial, sans-serif" font-weight="500" font-size="20" fill="#71717a" letter-spacing="0.3">YAML-native multi-agent DAG workflows</text>
  <rect x="540" y="520" width="120" height="2" rx="1" fill="#94a3b8" opacity="0.3"></rect>
</svg>